<svg id="Layer_1" data-name="Layer 1" xmlns="http://www.w3.org/2000/svg" viewBox="0 0 39.94 39.94"><defs><style>.cls-1,.cls-2,.cls-3{fill:#fff;fill-rule:evenodd;}.cls-1{opacity:0.8;}.cls-1,.cls-2{isolation:isolate;}.cls-2{opacity:0.9;}</style></defs><title>logo</title><path class="cls-1" d="M341.35,300.42a2.31,2.31,0,0,1,0,3.26l-.05.05a2.33,2.33,0,0,1-3.28,0,2.31,2.31,0,0,1,0-3.26l.05-.05A2.33,2.33,0,0,1,341.35,300.42Z" transform="translate(-337.06 -275.86)"/><path class="cls-2" d="M352.25,301.11a2.3,2.3,0,0,1,0,3.26l-6.43,6.37a2.33,2.33,0,0,1-3.28,0,2.3,2.3,0,0,1,0-3.26l6.42-6.36A2.33,2.33,0,0,1,352.25,301.11Z" transform="translate(-337.06 -275.86)"/><path class="cls-1" d="M361,312.07a2.33,2.33,0,0,1,3.22-.64l.14.09a2.31,2.31,0,1,1-2.58,3.84l-.14-.09A2.31,2.31,0,0,1,361,312.07Z" transform="translate(-337.06 -275.86)"/><path class="cls-2" d="M376.27,300.28a2.29,2.29,0,0,1,0,3.26l-3.15,3.14a2.33,2.33,0,0,1-3.28,0,2.31,2.31,0,0,1,0-3.26l3.15-3.14A2.33,2.33,0,0,1,376.27,300.28Z" transform="translate(-337.06 -275.86)"/><path class="cls-3" d="M376.32,288.68a2.29,2.29,0,0,1,0,3.26L353,315.12a2.33,2.33,0,0,1-3.28,0,2.31,2.31,0,0,1,0-3.26L373,288.68A2.33,2.33,0,0,1,376.32,288.68Z" transform="translate(-337.06 -275.86)"/><path class="cls-3" d="M371.91,281.56a2.29,2.29,0,0,1,0,3.26l-13.4,13.33a2.33,2.33,0,0,1-3.28,0,2.29,2.29,0,0,1,0-3.26l13.4-13.33A2.33,2.33,0,0,1,371.91,281.56Z" transform="translate(-337.06 -275.86)"/><path class="cls-3" d="M364.84,277a2.29,2.29,0,0,1,0,3.26l-17.23,17.15a2.33,2.33,0,0,1-3.28,0,2.29,2.29,0,0,1,0-3.26L361.56,277A2.33,2.33,0,0,1,364.84,277Z" transform="translate(-337.06 -275.86)"/><path class="cls-2" d="M347.78,282.53a2.3,2.3,0,0,1,0,3.26L341,292.48a2.33,2.33,0,0,1-3.28,0,2.3,2.3,0,0,1,0-3.26l6.75-6.69A2.34,2.34,0,0,1,347.78,282.53Z" transform="translate(-337.06 -275.86)"/><path class="cls-1" d="M351.91,275.86a2.31,2.31,0,0,1,2.32,2.3v.23a2.32,2.32,0,0,1-4.64,0v-.23A2.31,2.31,0,0,1,351.91,275.86Z" transform="translate(-337.06 -275.86)"/></svg>